<svg width="20" height="24" class="rh_svg" xmlns="http://www.w3.org/2000/svg" viewBox="0 0 24 24"><path d="M13.3 1.8c-4.4 0-8 3.6-8 8s3.6 8 8 8 8-3.6 8-8S17.7 1.8 13.3 1.8zM13.3 10.8c-0.2 0-0.3 0-0.4-0.1 0 0 0 0-0.1 0L9.1 7.9C8.9 7.8 8.8 7.5 8.9 7.3 9.1 7 9.4 6.9 9.6 7.1l2.8 1.2 0.3-3c0-0.3 0.2-0.5 0.5-0.5 0.3 0 0.5 0.2 0.5 0.5l0.5 4.5C14.3 10.3 13.8 10.8 13.3 10.8z"/><path d="M21.8 5.2C22.6 6.5 23 8.1 23 9.8c0 5.4-4.4 9.8-9.8 9.8 -5.4 0-9.8-4.4-9.8-9.8 0-5.2 4-9.4 9.1-9.7 -0.2 0-0.4 0-0.6 0C5.4 0 0 5.4 0 12s5.4 12 12 12c6.6 0 12-5.4 12-12C24 9.5 23.2 7.1 21.8 5.2z"/></svg>