<svg xmlns="http://www.w3.org/2000/svg" width="18" height="18" viewBox="0 0 18 18">
  <path id="menu" d="M1539.01,1029a1.958,1.958,0,0,1,1.99,1.99,2.067,2.067,0,0,1-1.99,2.01A2,2,0,1,1,1539.01,1029Zm5.99,0h8a2,2,0,0,1,0,4h-8A2,2,0,0,1,1545,1029Zm-5.99,7a1.958,1.958,0,0,1,1.99,1.99,2.067,2.067,0,0,1-1.99,2.01A2,2,0,1,1,1539.01,1036Zm5.99,0h8a2.006,2.006,0,0,1,2,2h0a2.006,2.006,0,0,1-2,2h-8a2.006,2.006,0,0,1-2-2h0A2.006,2.006,0,0,1,1545,1036Zm-5.99,7a1.958,1.958,0,0,1,1.99,1.99,2.067,2.067,0,0,1-1.99,2.01A2,2,0,1,1,1539.01,1043Zm5.99,0h8a2.006,2.006,0,0,1,2,2h0a2.006,2.006,0,0,1-2,2h-8a2.006,2.006,0,0,1-2-2h0A2.006,2.006,0,0,1,1545,1043Z" transform="translate(-1537 -1029)"/>
</svg>
