<svg xmlns="http://www.w3.org/2000/svg" width="18" height="18" viewBox="0 0 18 18">
  <path d="M1497,1029h4a2.006,2.006,0,0,1,2,2v4a2.006,2.006,0,0,1-2,2h-4a2.006,2.006,0,0,1-2-2v-4A2.006,2.006,0,0,1,1497,1029Zm0,10h4a2.006,2.006,0,0,1,2,2v4a2.006,2.006,0,0,1-2,2h-4a2.006,2.006,0,0,1-2-2v-4A2.006,2.006,0,0,1,1497,1039Zm10-10h4a2.006,2.006,0,0,1,2,2v4a2.006,2.006,0,0,1-2,2h-4a2.006,2.006,0,0,1-2-2v-4A2.006,2.006,0,0,1,1507,1029Zm0,10h4a2.006,2.006,0,0,1,2,2v4a2.006,2.006,0,0,1-2,2h-4a2.006,2.006,0,0,1-2-2v-4A2.006,2.006,0,0,1,1507,1039Z" transform="translate(-1495 -1029)"/>
</svg>
