<svg xmlns="http://www.w3.org/2000/svg" width="24" height="13" viewBox="0 0 24 13"><path class="rh_double_check" d="M13.2 5.6l0.8-1 2-2.3c0.3-0.4 0.3-1.1-0.1-1.5 -0.4-0.4-1.1-0.4-1.6 0l-3.5 3L13.2 5.6z"/><path class="rh_double_check" d="M6.1 7.9L6.1 7.9 2.5 5.2c-0.4-0.4-1.2-0.4-1.7 0 -0.4 0.4-0.4 1.2 0 1.7l3.8 5c0.4 0.3 1 0.5 1.6 0.5s1.1-0.2 1.6-0.5l0.7-0.9L6.1 7.9z"/><path class="rh_double_check" d="M23.1 0.8c-0.4-0.4-1.1-0.4-1.6 0l-8.2 7.1L9.8 5.2c-0.4-0.4-1.2-0.4-1.7 0l0 0c-0.4 0.4-0.4 1.2 0 1.7l3.8 5c0.4 0.3 1 0.5 1.6 0.5s1.1-0.2 1.6-0.5l8.2-9.6 0 0C23.6 1.9 23.6 1.3 23.1 0.8z"/></svg>