<svg xmlns="http://www.w3.org/2000/svg" viewBox="0 0 307.2 307.2"><circle cx="153.6" cy="153.6" r="68.3"/><path d="M153.6 0c-9.4 0-17.1 7.6-17.1 17.1v17.1c0 9.4 7.6 17.1 17.1 17.1s17.1-7.6 17.1-17.1V17.1C170.7 7.6 163 0 153.6 0z"/><path d="M153.6 256c-9.4 0-17.1 7.6-17.1 17.1v17.1c0 9.4 7.6 17.1 17.1 17.1s17.1-7.6 17.1-17.1v-17.1C170.7 263.6 163 256 153.6 256z"/><path d="M290.1 136.5h-17.1c-9.4 0-17.1 7.6-17.1 17.1s7.6 17.1 17.1 17.1h17.1c9.4 0 17.1-7.6 17.1-17.1S299.6 136.5 290.1 136.5z"/><path d="M34.1 136.5H17.1C7.6 136.5 0 144.2 0 153.6s7.6 17.1 17.1 17.1h17.1c9.4 0 17.1-7.6 17.1-17.1S43.6 136.5 34.1 136.5z"/><path d="M261.8 45c-6.6-6.4-17.1-6.4-23.7 0l-12.1 12.1c-6.7 6.7-6.7 17.5 0 24.1 3.2 3.2 7.5 5 12.1 5 4.5 0 8.9-1.8 12.1-5l12.1-12.1C268.8 62.3 268.6 51.5 261.8 45z"/><path d="M81.6 226c-6.5-6.8-17.4-7-24.1-0.4 -0.1 0.1-0.3 0.3-0.4 0.4L45 238.1c-6.8 6.5-7 17.4-0.4 24.1 6.5 6.8 17.4 7 24.1 0.4 0.1-0.1 0.3-0.3 0.4-0.4l12.1-12.1C88 243.6 88.2 232.8 81.6 226z"/><path d="M262.2 238.1l-12.1-12.1c-6.8-6.5-17.6-6.4-24.1 0.4 -6.4 6.6-6.4 17.1 0 23.7l12.1 12.1c6.8 6.5 17.6 6.4 24.1-0.4C268.6 255.2 268.6 244.7 262.2 238.1z"/><path d="M81.6 57.5c-0.1-0.1-0.3-0.3-0.4-0.4L69.1 45c-6.8-6.5-17.6-6.4-24.1 0.4 -6.4 6.6-6.4 17.1 0 23.7l12.1 12.1c6.5 6.8 17.4 7 24.1 0.4C88 75.1 88.2 64.3 81.6 57.5z"/></svg>
