<svg xmlns="http://www.w3.org/2000/svg" viewBox="0 0 24 24">
<style type="text/css">
	.st0{fill:#ffffff;clip-rule:evenodd;}
</style>
<path class="st0" d="M18.3,19.9H21c0.6,0,1,0.5,1,1c0,0.6-0.5,1-1,1h-3.7c-0.6,0-1.1-0.5-1.1-1.1L15.8,19c-0.1-0.6,0.3-1.1,0.8-1.2
	c0.6-0.1,1.1,0.3,1.2,0.8L18.3,19.9z"/>
<g>
	<path class="st0" d="M16.8,7.7c-0.4,0.4-1.1,0.4-1.5,0l-3.2-3.3l-8.3,8.3c-0.4,0.4-1.1,0.4-1.5,0s-0.4-1.1,0-1.5l2.8-2.7V3
		c0-0.5,0.4-1,1-1s1,0.5,1,1v3.5l4.2-4.2c0.4-0.4,1.1-0.4,1.5,0l3.9,3.9C17.2,6.6,17.2,7.3,16.8,7.7z"/>
	<path class="st0" d="M7.1,21c0,0.5-0.4,1-1,1s-1-0.5-1-1v-7.6l2-2V21z"/>
</g>
<circle class="st0" cx="20" cy="4" r="2"/>
<g>
	<g>
		<path id="a" class="st0" d="M17.5,10c0.2,0,0.4-0.1,0.5-0.1l-0.4-0.3L17.5,10z M15.2,11.8l-1.3,0.9l-0.5-0.3l-0.2,0.8h-1.8
			l0.2-0.5c0.2-0.4,1.4-1.7,2.8-2.1L14,10.2l-0.4,0.4l-1.5-0.5V9.3l-0.6,0.6L10,9.6c0,0,0-0.3,0.6-0.8c0.5-0.5,3.1-1.9,5.2,1.7
			c1.5-4.5,4.7-3.5,5.4-3C21.9,7.9,22,8.2,22,8.2l-1.6,0.6l-0.7-0.6l0.1,0.9l-1.3,0.7c2.3-0.2,3.3,1.7,3.5,2.3
			c0.2,0.8,0.1,1.1,0.1,1.1l-1.6-0.7l-0.1-0.9l-0.5,0.7l-1.8-0.5L18,11.2l-0.4,0.2c1.1,0.9,1.7,2.4,1.7,2.8v0.5l-1.7-0.6l0.1-0.9
			l-0.6,0.1l-0.8-1.2c0,0-0.7,4.5-2.7,9.7h-1.2C14.7,15.7,15.2,11.8,15.2,11.8"/>
	</g>
</g>
</svg>
