<svg xmlns="http://www.w3.org/2000/svg" viewBox="0 0 24 24">
  <path style="fill:#ffffff;" fill-rule="evenodd" d="M21.72 12.69c-.4.4-1.06.4-1.46 0L12 4.43l-8.26 8.26c-.4.4-1.06.4-1.46 0s-.4-1.06 0-1.46L5 8.51V3c0-.55.45-1 1-1s1 .45 1 1v3.51l4.23-4.23c.44-.39 1.1-.39 1.54 0l8.95 8.95c.4.4.4 1.05 0 1.46zM7 21c0 .55-.45 1-1 1s-1-.45-1-1v-7.57l2-2V21zm3.55-3.74l1.85 1.28 5.14-4.3c.33-.33.87-.33 1.2 0 .33.33.33.87 0 1.2l-5.07 6.09c-.31.31-.74.47-1.18.44-.44.03-.87-.13-1.18-.44l-2.06-2.98c-.36-.36-.36-.94 0-1.29.37-.36.94-.36 1.3 0z" clip-rule="evenodd"/>
</svg>
