<svg xmlns="http://www.w3.org/2000/svg" viewBox="0 0 16 16">
	<style type="text/css">

		.st0{fill-rule:evenodd;clip-rule:evenodd;}

	</style>
	<path class="st0" d="M7.4 2.4c0-0.2 0.2-0.3 0.4-0.4 0.1 0 0.3 0 0.5 0 0.2 0.1 0.3 0.2 0.4 0.4l1.5 3.1L13.4 6c0.2 0 0.4 0.1 0.5 0.3C14 6.4 14 6.6 14 6.8c0 0.2-0.1 0.4-0.2 0.5l-2.4 2.4 0.6 3.4c0 0.2 0 0.4-0.1 0.5 -0.2 0.3-0.6 0.4-0.9 0.2l0 0 -3-1.5 -2.9 1.6c-0.3 0.2-0.7 0.1-0.9-0.2l0 0C4 13.5 4 13.3 4 13.1l0.6-3.4L2.2 7.3C2.1 7.2 2 7 2 6.8s0-0.4 0.2-0.5C2.3 6.1 2.4 6 2.6 6l3.3-0.5L7.4 2.4z"/>
</svg>