<svg xmlns="http://www.w3.org/2000/svg" viewBox="0 0 18 18">
	<style type="text/css">

		.st0{fill-rule:evenodd;clip-rule:evenodd;}

	</style>
	<path class="st0" d="M4 1h10c1.7 0 3 1.3 3 3v10c0 1.7-1.3 3-3 3H4c-1.7 0-3-1.3-3-3V4C1 2.3 2.3 1 4 1zM3.4 2.6c0.4 0 0.8 0.4 0.8 0.8V5c0 0.4-0.4 0.8-0.8 0.8C3 5.8 2.6 5.4 2.6 5c0 0 0 0 0 0V3.4C2.6 3 3 2.6 3.4 2.6L3.4 2.6zM11.2 9.2c0.1-0.1 0.2-0.2 0.1-0.4 0-0.1-0.1-0.1-0.1-0.1L7.1 5.9C7 5.8 7 5.8 6.9 5.8c-0.2 0-0.3 0.1-0.3 0.3v5.9c0 0.2 0.1 0.3 0.3 0.3 0.1 0 0.1 0 0.2-0.1L11.2 9.2zM3.4 7.4c0.4 0 0.8 0.4 0.8 0.8l0 0v1.6c0 0.4-0.4 0.8-0.8 0.8 -0.4 0-0.8-0.4-0.8-0.8 0 0 0 0 0 0V8.2C2.6 7.8 3 7.4 3.4 7.4zM3.4 12.2c0.4 0 0.8 0.4 0.8 0.8l0 0v1.6c0 0.4-0.4 0.8-0.8 0.8 -0.4 0-0.8-0.4-0.8-0.8 0 0 0 0 0 0V13C2.6 12.6 3 12.2 3.4 12.2 3.4 12.2 3.4 12.2 3.4 12.2zM14.6 2.6c0.4 0 0.8 0.4 0.8 0.8l0 0V5c0 0.4-0.4 0.8-0.8 0.8S13.8 5.4 13.8 5V3.4C13.8 3 14.2 2.6 14.6 2.6L14.6 2.6zM14.6 7.4c0.4 0 0.8 0.4 0.8 0.8l0 0v1.6c0 0.4-0.4 0.8-0.8 0.8s-0.8-0.4-0.8-0.8V8.2C13.8 7.8 14.2 7.4 14.6 7.4zM14.6 12.2c0.4 0 0.8 0.4 0.8 0.8l0 0v1.6c0 0.4-0.4 0.8-0.8 0.8s-0.8-0.4-0.8-0.8V13C13.8 12.6 14.2 12.2 14.6 12.2 14.6 12.2 14.6 12.2 14.6 12.2z"/>
</svg>