<svg width="16" height="16" xmlns="http://www.w3.org/2000/svg">
 <title/>

 <g>
  <title>background</title>
  <rect fill="none" id="canvas_background" height="18" width="18" y="-1" x="-1"/>
 </g>
 <g>
  <title>Layer 1</title>
  <path fill="#808080" stroke="null" id="svg_1" d="m8.379758,15.819754a8.180195,7.762598 0 0 1 0,-15.525196c4.641676,0 7.303745,2.425257 7.303745,6.653655l0,0.277236a5.277394,5.007985 0 0 1 -0.675743,2.690849a2.892283,2.744633 0 0 1 -2.537905,1.399486c-1.164801,0 -2.525051,-0.637642 -2.525051,-2.431634l0,-0.027724l0.17529,-3.311303q-0.216191,-0.040476 -0.447574,-0.072913a8.528437,8.093063 0 0 0 -1.197814,-0.093428a2.493791,2.366483 0 0 0 -1.964707,0.748536a3.094159,2.936203 0 0 0 -0.75959,2.094515a2.763445,2.622372 0 0 0 0.50688,1.697237a1.51655,1.43913 0 0 0 1.267346,0.499024a1.738876,1.650107 0 0 0 0.985421,-0.249512a0.5843,0.554471 0 1 1 0.64273,0.926522a2.868327,2.7219 0 0 1 -1.627859,0.430824a2.670834,2.534488 0 0 1 -2.169212,-0.903788c-0.513599,-0.589126 -0.773905,-1.397268 -0.773905,-2.400306a4.205204,3.99053 0 0 1 1.07219,-2.847487a3.681088,3.493169 0 0 1 2.822167,-1.104507a9.71106,9.215313 0 0 1 1.366385,0.105072a9.580761,9.091666 0 0 1 1.036255,0.197115l0.458675,0.114776l-0.224079,4.210655c0.006427,1.138607 0.851617,1.309384 1.356452,1.309384a1.749393,1.660087 0 0 0 1.505156,-0.809805a4.108503,3.898765 0 0 0 0.539893,-2.171587l0,-0.277236c0,-3.57634 -2.178853,-5.544713 -6.135146,-5.544713a7.011596,6.653655 0 1 0 4.854069,11.454822a0.5843,0.554471 0 1 1 0.809255,0.800379a8.141047,7.725448 0 0 1 -5.663324,2.161052z"/>
 </g>
</svg>