<svg width="20" height="20" xmlns="http://www.w3.org/2000/svg">

 <g>
  <title>background</title>
  <rect fill="none" id="canvas_background" height="22" width="22" y="-1" x="-1"/>
 </g>
 <g>
  <title>Layer 1</title>
  <path class="svg-bg" stroke="null" fill-rule="nonzero" id="rect2995" d="m2.020114,0.024131c-1.105214,0 -1.994971,0.893663 -1.994971,2.003728l0,16.029826c0,1.110065 0.889757,2.003728 1.994971,2.003728l6.989881,0l0,-8.97545l-1.766797,0l0,-3.173405l1.766797,0l0,-2.052569c0,-1.469792 0.695659,-3.765757 3.750546,-3.765757l2.751814,0.010019l0,3.07948l-1.998712,0c-0.325563,0 -0.788014,0.163622 -0.788014,0.864108l0,1.86472l2.831613,0l-0.324183,3.173405l-2.50743,0l0,8.97545l5.254256,0c1.105214,0 1.994971,-0.893663 1.994971,-2.003728l0,-16.029826c0,-1.110065 -0.889757,-2.003728 -1.994971,-2.003728l-15.959771,0z"/>
 </g>
</svg>