<svg width="20" height="20" xmlns="http://www.w3.org/2000/svg">

 <g>
  <title>background</title>
  <rect fill="none" id="canvas_background" height="22" width="22" y="-1" x="-1"/>
 </g>
 <g>
  <title>Layer 1</title>
  <path stroke="null" class="svg-bg" fill-rule="nonzero" id="rect2995-4" d="m1.997336,0.002912c-1.108369,0 -2.000666,0.89174 -2.000666,1.999418l0,15.99534c0,1.107677 0.892297,1.999418 2.000666,1.999418l16.005328,0c1.108369,0 2.000666,-0.89174 2.000666,-1.999418l0,-15.99534c0,-1.107677 -0.892297,-1.999418 -2.000666,-1.999418l-16.005328,0zm3.597448,4.230018c0.767542,0 1.389212,0.621283 1.389212,1.388346c0,0.767063 -0.621671,1.389595 -1.389212,1.389595c-0.767542,0 -1.389212,-0.622533 -1.389212,-1.389595c0,-0.767063 0.621671,-1.388346 1.389212,-1.388346zm7.277423,3.616446c0.156935,0.000559 0.317076,0.007957 0.532677,0.021244c1.0477,0.064568 2.215163,0.88294 2.249499,2.800434c0.028279,1.579252 0.020007,4.082049 0.020007,5.003542l-2.382043,0c0,-0.942714 0.010003,-2.890127 0.010003,-4.267507c0,-0.626714 -0.281495,-1.469572 -1.284178,-1.469572c-1.104259,0 -1.372957,1.025474 -1.372957,1.469572c0,1.322559 -0.011254,3.429054 -0.011254,4.267507l-2.368288,0c0,-1.413371 0.015005,-6.264315 0.015005,-7.634026c1.223098,0 1.808237,-0.002499 2.255751,-0.002499c0,0.448559 -0.003751,0.748658 -0.003751,1.075937c0.373603,-0.753832 1.393715,-1.225826 1.830609,-1.248386c0.19921,-0.010287 0.351984,-0.016805 0.508919,-0.016245zm-8.466569,0.221186l2.374541,0l0,7.600286l-2.374541,0l0,-7.600286z"/>
 </g>
</svg>