<svg width="16" height="17" xmlns="http://www.w3.org/2000/svg">

 <g>
  <title>background</title>
  <rect fill="none" id="canvas_background" height="19" width="18" y="-1" x="-1"/>
 </g>
 <g>
  <title>Layer 1</title>
  <path stroke="#808080" id="svg_2" stroke-miterlimit="10" fill="none" d="m9.581857,11.733717c0,0 1.256406,-0.747923 1.585325,-0.927644c0.327988,-0.180366 0.667766,-0.225861 0.874116,-0.094862c0.312472,0.198758 2.936373,2.013713 3.157307,2.174397c0.220934,0.161007 0.327367,0.620795 0.023583,1.071227c-0.302543,0.450432 -1.698274,2.231508 -2.289707,2.212471c-0.592363,-0.020005 -3.055218,-0.076147 -7.699484,-4.906671c-4.643335,-4.828911 -4.698258,-7.390498 -4.717187,-8.006454c-0.018928,-0.615633 1.69393,-2.067275 2.127109,-2.382189c0.4338,-0.314592 0.876599,-0.196177 1.030508,0.025167c0.175009,0.251996 1.90028,2.971687 2.090183,3.283375c0.130016,0.212955 0.08223,0.568202 -0.091228,0.909575c-0.172527,0.342018 -0.891803,1.648463 -0.891803,1.648463s0.507031,0.89925 2.221751,2.681939c1.71503,1.783012 2.579527,2.311205 2.579527,2.311205z"/>
 </g>
</svg>