<svg xmlns="http://www.w3.org/2000/svg" viewBox="0 0 24 24">
  <path style="fill:#ffffff;" fill-rule="evenodd" d="M21.72 12.69c-.4.4-1.06.4-1.46 0L12 4.43l-8.26 8.26c-.4.4-1.06.4-1.46 0s-.4-1.06 0-1.46L5 8.51V3c0-.55.45-1 1-1s1 .45 1 1v3.51l4.23-4.23c.44-.39 1.1-.39 1.54 0l8.95 8.95c.4.4.4 1.05 0 1.46zM7 21c0 .55-.45 1-1 1s-1-.45-1-1v-7.57l2-2V21zm4-8c0-1.1.9-2 2-2s2 .9 2 2-.9 2-2 2-2-.9-2-2zm1 3h2c1.1 0 2 .9 2 2v4h-6v-4c0-1.1.9-2 2-2zm6-.5c0-.83.67-1.5 1.5-1.5s1.5.67 1.5 1.5-.67 1.5-1.5 1.5-1.5-.67-1.5-1.5zm1 2.5h1c1.1 0 2 .9 2 2v2h-5v-2c0-1.1.9-2 2-2z" clip-rule="evenodd"/>
</svg>
