<svg width="20" height="19" xmlns="http://www.w3.org/2000/svg">

 <g>
  <title>background</title>
  <rect fill="none" id="canvas_background" height="21" width="22" y="-1" x="-1"/>
 </g>
 <g>
  <title>Layer 1</title>
  <path stroke="null" id="svg_2" class="svg-bg" d="m20.024317,17.773887c0,0.652526 -0.558702,1.182112 -1.247102,1.182112l-17.459426,0c-0.6884,0 -1.247101,-0.529586 -1.247101,-1.182112l0,-16.549557c0,-0.652525 0.558701,-1.182111 1.247101,-1.182111l17.459426,0c0.6884,0 1.247102,0.529586 1.247102,1.182111c0,5.516519 0,11.033038 0,16.549557z"/>
  <path stroke="null" id="svg_3" fill="#FFFFFF" d="m16.31181,5.697794c-0.464851,0.200559 -0.963177,0.334472 -1.488661,0.395512c0.536853,-0.310181 0.947387,-0.802858 1.140654,-1.389585c-0.500221,0.287135 -1.054758,0.496414 -1.645296,0.60915c-0.47243,-0.48894 -1.145707,-0.79476 -1.890354,-0.79476c-1.431186,0 -2.589525,1.125495 -2.589525,2.51508c0,0.195576 0.022737,0.389283 0.065686,0.57427c-2.151832,-0.107131 -4.060502,-1.108055 -5.338212,-2.629062c-0.22232,0.371843 -0.351165,0.80348 -0.351165,1.265637c0,0.871371 0.458535,1.641218 1.152023,2.092786c-0.423798,-0.013703 -0.823595,-0.126439 -1.172234,-0.315164c-0.000632,0.010589 -0.000632,0.021177 -0.000632,0.032388c0,1.217678 0.89307,2.235419 2.077936,2.466498c-0.216636,0.056057 -0.445272,0.088445 -0.68275,0.088445c-0.16674,0 -0.328428,-0.014948 -0.486326,-0.044845c0.328428,0.999056 1.284657,1.725926 2.417733,1.747103c-0.882965,0.673927 -2.000882,1.07629 -3.214169,1.07629c-0.208425,0 -0.415587,-0.011211 -0.618328,-0.03488c1.145707,0.713167 2.50805,1.129232 3.970816,1.129232c4.762832,0 7.368147,-3.833037 7.368147,-7.157204c0,-0.107754 -0.003158,-0.217999 -0.007579,-0.324506c0.505273,-0.355649 0.945493,-0.798498 1.292236,-1.302386z"/>
 </g>
</svg>