<svg class="rh_svg" xmlns="http://www.w3.org/2000/svg" width="20" height="24" viewBox="0 0 26.2 24"><ellipse transform="matrix(0.7071 -0.7071 0.7071 0.7071 1.5724 14.7053)" cx="18.5" cy="5.5" rx="5.5" ry="5.5"/><path d="M26.1 20.9l-1.1-5.3c-4-3.6-10.3-3.3-13.9 0.8 -1.6 1.8-2.5 4.1-2.5 6.5V24h14.6c1.5 0.1 2.8-1 2.9-2.5C26.2 21.3 26.2 21.1 26.1 20.9z"/><circle cx="5.5" cy="10.9" r="4.4"/><path d="M0 19.7l0 1.1c-0.3 1.5 0.7 2.8 2.2 3.1 0.2 0 0.4 0.1 0.7 0h3.7v-1.1c0-1.8 0.8-3.5 2-5 -0.9-0.3-2-0.5-3-0.5C3.4 17.5 1.5 18.3 0 19.7z"/></svg>