<svg enable-background="new 0 0 336 235.2" height="48" viewBox="0 0 64 48" width="64" xmlns="http://www.w3.org/2000/svg"><path d="m-2 0h64v48h-64z" fill="#fff" style="fill-opacity: 0;" pointer-events="none"/><g fill="none" transform="matrix(.7113142357 0 0 .7113142357 .14443755071 -7.85554744929)"><path d="m80.89 78.772h-71.78c-5.023 0-9.11-4.087-9.11-9.11v-49.324c0-5.023 4.087-9.11 9.11-9.11h71.78c5.023 0 9.11 4.087 9.11 9.11v49.324c0 5.024-4.087 9.11-9.11 9.11zm-71.78-61.544c-1.715 0-3.11 1.396-3.11 3.11v49.324c0 1.715 1.395 3.11 3.11 3.11h71.78c1.715 0 3.11-1.396 3.11-3.11v-49.324c0-1.715-1.396-3.11-3.11-3.11z" stroke-linecap="round"/><path d="m45 55.427c-5.408 0-10.599-2.292-14.242-6.288l-28.265-31.014 4.435-4.042 28.265 31.013c2.545 2.792 6.028 4.331 9.807 4.331s7.262-1.538 9.808-4.331l28.266-31.013 4.434 4.042-28.267 31.013c-3.642 3.997-8.833 6.289-14.241 6.289z" stroke-linecap="round"/><path d="m-.96 57.16h38.98v6h-38.98z" transform="matrix(.7053 -.7089 .7089 .7053 -37.1881 30.8639)"/><path d="m68.470001 40.669998h6v38.98h-6z" transform="matrix(.709 -.7053 .7053 .709 -21.628 67.9146)"/></g></svg>