<svg xmlns="http://www.w3.org/2000/svg" viewBox="0 0 38 28">
	<style type="text/css">

		.st0{fill-rule:evenodd;clip-rule:evenodd;}

	</style>
	<path class="st0" d="M33.2 2c-2.7 0-5.4 1.4-8 4.1 -2.7 2.6-4.3 6.2-4.3 9.9 -0.1 2.3 0.7 4.6 2.2 6.4 1.4 1.6 3.4 2.4 5.6 2.4 1.9 0 3.8-0.6 5.2-1.9 1.4-1.1 2.2-2.9 2.1-4.7 0.1-1.5-0.5-2.9-1.4-4 -0.9-1-2.2-1.6-3.6-1.6 -1.2 0.3-2.3 0.6-3.5 0.7 0.6-2.1 2.1-3.9 4.1-4.9l3.2-1.6C35.5 6.3 36 5.4 36 4.4 36 2.8 35.1 2 33.2 2L33.2 2zM12.7 15.8C11 16 9.4 16.6 8 17.5c-0.1-0.5-0.1-1-0.1-1.5 0.1-2 0.8-4 2.1-5.5 1.3-1.9 2-3.2 2-3.9 0-1.6-0.9-2.5-2.8-2.5 -1.5 0-3 1.3-4.6 3.8C2.9 10.3 2 13.2 2 16.2c-0.1 2.8 0.8 5.5 2.4 7.7 1.4 2 3.6 3.1 6 3.1 1.8 0.1 3.6-0.5 5-1.7 1.2-1.1 1.9-2.7 1.9-4.3C17.3 17.5 15.7 15.8 12.7 15.8L12.7 15.8 12.7 15.8z"/>
</svg>