<svg version="1.1" xmlns="http://www.w3.org/2000/svg" xmlns:xlink="http://www.w3.org/1999/xlink" x="0px" y="0px"
	 width="24px" height="24px" viewBox="0 0 24 24" enable-background="new 0 0 24 24" xml:space="preserve">
<g class="rh_svg">
	<path d="M20,2h-1V1c0-0.552-0.447-1-1-1s-1,0.448-1,1v1H7V1c0-0.552-0.447-1-1-1S5,0.448,5,1v1H4C1.794,2,0,3.794,0,6v14
		c0,2.206,1.794,4,4,4h16c2.206,0,4-1.794,4-4V6C24,3.794,22.206,2,20,2z M22,20c0,1.104-0.896,2-2,2H4c-1.104,0-2-0.896-2-2V6
		c0-1.104,0.896-2,2-2h1v1c0,0.552,0.447,1,1,1s1-0.448,1-1V4h10v1c0,0.552,0.447,1,1,1s1-0.448,1-1V4h1c1.104,0,2,0.896,2,2V20z"/>
	<circle cx="6" cy="12" r="2"/>
	<circle cx="18" cy="12" r="2"/>
	<circle cx="12" cy="12" r="2"/>
	<circle cx="6" cy="18" r="2"/>
	<circle cx="18" cy="18" r="2"/>
	<circle cx="12" cy="18" r="2"/>
</g>
</svg>
