<svg xmlns="http://www.w3.org/2000/svg" viewBox="0 0 18 18">
	<style type="text/css">

		.st0{fill-rule:evenodd;clip-rule:evenodd;}

	</style>
	<path class="st0" d="M3 5h12c1.1 0 2 0.9 2 2v8c0 1.1-0.9 2-2 2H3c-1.1 0-2-0.9-2-2V7C1 5.9 1.9 5 3 5zM7.7 1h2.8c0.8-0.2 1.7 0.4 1.8 1.2 0 0 0 0.1 0 0.1L13 5H5l0.7-2.7C5.9 1.4 6.8 0.8 7.7 1zM9 7.4c2.2 0 4 1.8 4 4s-1.8 4-4 4 -4-1.8-4-4S6.8 7.4 9 7.4zM9 9c1.3 0 2.4 1.1 2.4 2.4s-1.1 2.4-2.4 2.4 -2.4-1.1-2.4-2.4S7.7 9 9 9L9 9zM8.2 2.6h1.6c0.4 0 0.8 0.4 0.7 0.9 0 0.4-0.3 0.7-0.7 0.7H8.2c-0.4 0-0.8-0.3-0.9-0.7 0-0.4 0.3-0.8 0.7-0.9C8.1 2.6 8.2 2.6 8.2 2.6z"/>
</svg>