<svg width="24" height="24" xmlns="http://www.w3.org/2000/svg">
 <g>
  <rect fill="none" height="26" width="26" y="-1" x="-1"/>
 </g>
 <g>
  <rect x="1" y="1" id="svg_1" width="32" height="32" fill="none"/>
  <path class="rh_svg" stroke="null" fill="#1ea69a" id="svg_2" d="m23.952237,12l-4.482089,-4.170255l0,2.78017l-1.49403,0l0,-4.170255l-4.482089,0l0,-1.390085l2.988059,0l-4.482089,-4.170255l-4.482089,4.170255l2.988059,0l0,1.390085l-4.482089,0l0,4.170255l-1.49403,0l0,-2.78017l-4.482089,4.170255l4.482089,4.170255l0,-2.78017l1.49403,0l0,4.170255l4.482089,0l0,1.390085l-2.988059,0l4.482089,4.170255l4.482089,-4.170255l-2.988059,0l0,-1.390085l4.482089,0l0,-4.170255l1.49403,0l0,2.78017l4.482089,-4.170255zm-7.470148,4.170255l-8.964178,0l0,-8.34051l8.964178,0l0,8.34051z"/>
 </g>
</svg>